<svg xmlns="http://www.w3.org/2000/svg" version="1.1" xmlns:xlink="http://www.w3.org/1999/xlink" width="100" height="115.19" x="0" y="0" viewBox="0 0 101.08 116.43" style="enable-background:new 0 0 512 512" xml:space="preserve" class=""><g><g data-name="Layer 2"><path d="M23.33 0h-7.78A15.53 15.53 0 0 0 0 15.52v85.38a15.54 15.54 0 0 0 15.55 15.53h7.78a15.54 15.54 0 0 0 15.55-15.53V15.52A15.54 15.54 0 0 0 23.33 0zm62.2 0h-7.78A15.54 15.54 0 0 0 62.2 15.52v85.38a15.54 15.54 0 0 0 15.55 15.53h7.78a15.54 15.54 0 0 0 15.55-15.53V15.52A15.53 15.53 0 0 0 85.53 0z" data-name="Layer 1" fill="#FFFFFF" opacity="1" data-original="#000000" class=""></path></g></g></svg>