<svg xmlns="http://www.w3.org/2000/svg" version="1.1" xmlns:xlink="http://www.w3.org/1999/xlink" width="100" height="100" x="0" y="0" viewBox="0 0 24 24" style="enable-background:new 0 0 512 512" xml:space="preserve"><g><g data-name="Layer 2"><path fill="#29B6F6" d="M22.75 6.22a2.34 2.34 0 0 1-.69 1.66l-2.48 2.48-11.29 11.3a2.42 2.42 0 0 1-1.41.67l-3.6.41h-.21a1.81 1.81 0 0 1-1.81-2l.41-3.6a2.42 2.42 0 0 1 .67-1.41l11.3-11.31 2.48-2.48a2.35 2.35 0 0 1 3.33 0l2.61 2.61a2.36 2.36 0 0 1 .69 1.67z" opacity="1" data-original="#29b6f6"></path><path fill="#1565C0" d="M22.75 6.22a2.34 2.34 0 0 1-.69 1.66l-2.48 2.48-5.94-5.94 2.48-2.48a2.35 2.35 0 0 1 3.33 0l2.61 2.61a2.36 2.36 0 0 1 .69 1.67z" opacity="1" data-original="#1565c0"></path></g></g></svg>