<svg xmlns="http://www.w3.org/2000/svg" version="1.1" xmlns:xlink="http://www.w3.org/1999/xlink" width="100" height="100" x="0" y="0" viewBox="0 0 512 512" style="enable-background:new 0 0 512 512" xml:space="preserve"><g><g data-name="Layer 2"><circle cx="256" cy="256" r="256" fill="#FF2147" opacity="1" data-original="#ff2147"></circle><path fill="#FFFFFF" d="M377.74 223.13h-88.87v-88.87A18.27 18.27 0 0 0 270.61 116h-29.22a18.27 18.27 0 0 0-18.26 18.26v88.87h-88.87A18.27 18.27 0 0 0 116 241.39v29.22a18.27 18.27 0 0 0 18.26 18.26h88.87v88.87A18.27 18.27 0 0 0 241.39 396h29.22a18.27 18.27 0 0 0 18.26-18.26v-88.87h88.87A18.27 18.27 0 0 0 396 270.61v-29.22a18.27 18.27 0 0 0-18.26-18.26z" opacity="1" data-original="#ffffff"></path></g></g></svg>