<svg xmlns="http://www.w3.org/2000/svg" version="1.1" xmlns:xlink="http://www.w3.org/1999/xlink" width="50" height="50" x="0" y="0" viewBox="0 0 512 512" style="enable-background:new 0 0 512 512" xml:space="preserve"><g><path fill="#F6AD41" d="M374.417 188.655c2.569-11.668 3.94-23.907 3.94-36.526 0-79.876-54.79-144.629-122.378-144.629-67.587 0-122.378 64.752-122.378 144.629 0 12.619 1.371 24.858 3.94 36.526z" opacity="1" data-original="#f6ad41"></path><path fill="#F79F13" d="M255.979 7.5c-67.587 0-122.378 64.752-122.378 144.629 0 12.618 1.371 24.858 3.94 36.526h118.438V47.5c-11.046 0-20-8.954-20-20s8.954-20 20-20z" opacity="1" data-original="#f79f13"></path><path fill="#F6AD41" d="m448.915 467.702-15.583-66.977a59.99 59.99 0 0 0-21.383-33.587h-29.11l-12.567-17.006-66.549-20.451h-95.447l-66.549 20.451-12.567 17.006h-29.11a59.985 59.985 0 0 0-21.383 33.587l-15.583 66.978c-4.376 18.811 9.906 36.797 29.22 36.797H181l74.999-29.926L331 504.5h88.696c19.314 0 33.596-17.986 29.219-36.798z" opacity="1" data-original="#f6ad41"></path><path fill="#6D5C6C" d="m370.581 388.808 41.368-21.671a59.921 59.921 0 0 0-19.431-10.169l-22.246-6.836-13.19 25.178c-4.548 8.683 4.816 18.047 13.499 13.498zM141.419 388.808l-41.368-21.671a59.921 59.921 0 0 1 19.431-10.169l22.246-6.836 13.19 25.178c4.548 8.683-4.816 18.047-13.499 13.498z" opacity="1" data-original="#6d5c6c"></path><path fill="#F7D49F" d="M256 404.5c-41.421 0-75 44.771-75 100h150c0-55.229-33.579-100-75-100z" opacity="1" data-original="#f7d49f"></path><path fill="#F79F13" d="M382.839 447.638 365.072 504.5h54.624l-17.767-56.862c-2.924-9.357-16.167-9.357-19.09 0zM129.161 447.638l17.767 56.862H92.304l17.767-56.862c2.924-9.357 16.167-9.357 19.09 0z" opacity="1" data-original="#f79f13"></path><path fill="#F5D6A7" d="M314.308 258.79H197.692c13.648 29.21 10.585 70.891 10.585 70.891s7.362 23.787 47.723 23.787 47.723-23.787 47.723-23.787S300.66 288 314.308 258.79z" opacity="1" data-original="#f5d6a7"></path><path fill="#F7BA65" d="M406.568 57.5V20c0-6.904-5.596-12.5-12.5-12.5h-37.5c-27.614 0-50 22.386-50 50s22.386 50 50 50 50-22.386 50-50zM105.432 57.5V20c0-6.904 5.596-12.5 12.5-12.5h37.5c27.614 0 50 22.386 50 50s-22.386 50-50 50-50-22.386-50-50z" opacity="1" data-original="#f7ba65"></path><path fill="#F79F13" d="M155.433 77.5c-11.028 0-20-8.972-20-20v-20h20c11.028 0 20 8.972 20 20s-8.973 20-20 20zM356.567 77.5c11.028 0 20-8.972 20-20v-20h-20c-11.028 0-20 8.972-20 20s8.973 20 20 20z" opacity="1" data-original="#f79f13"></path><path fill="#6D5C6C" d="M348.265 188.655a132.333 132.333 0 0 0 3.07-28.461c0-62.239-42.692-112.694-95.356-112.694s-95.356 50.455-95.356 112.694c0 9.832 1.068 19.369 3.07 28.461z" opacity="1" data-original="#6d5c6c"></path><ellipse cx="166" cy="190.331" fill="#F5D6A7" rx="30" ry="37.5" transform="rotate(-14.98 165.962 190.146)" opacity="1" data-original="#f5d6a7"></ellipse><ellipse cx="346" cy="190.331" fill="#F3DBB9" rx="37.5" ry="30" transform="rotate(-74.99 346.043 190.285)" opacity="1" data-original="#f3dbb9"></ellipse><path fill="#F7EAD3" d="M300.73 124.872c-3.509-5.766-10.352-8.489-16.876-6.757-8.672 2.303-18.052 3.565-27.849 3.565-9.8 0-19.184-1.263-27.858-3.568-6.524-1.734-13.368.99-16.877 6.757-14.141 23.237-31.374 34.567-31.374 34.567-2.526 9.73-3.897 20.112-3.897 30.895 0 55.228 35.817 100 80 100s80-44.772 80-100c0-10.783-1.371-21.165-3.897-30.895 0 .001-17.231-11.329-31.372-34.564z" opacity="1" data-original="#f7ead3"></path><path fill="#F3DBB9" d="M278.5 286.315c-33.228-12.151-57.5-50.521-57.5-95.984 0-26.957 8.56-51.387 22.435-69.369-5.284-.598-10.401-1.552-15.287-2.85-6.524-1.734-13.368.99-16.877 6.757-14.141 23.237-31.374 34.567-31.374 34.567-2.526 9.73-3.897 20.112-3.897 30.895 0 55.228 35.817 100 80 100 7.813.001 15.362-1.406 22.5-4.016z" opacity="1" data-original="#f3dbb9"></path><path fill="#F7BA65" d="M272.667 204.207h-32.961c-13.74 0-25.192 10.93-25.371 24.668-.181 13.959 11.08 25.332 24.998 25.332 3.521 0 6.872-.729 9.91-2.043 4.255-1.841 9.086-1.958 13.326-.082a24.93 24.93 0 0 0 10.803 2.116c13.302-.367 24.092-11.3 24.292-24.606.21-13.984-11.062-25.385-24.997-25.385z" opacity="1" data-original="#f7ba65"></path><path fill="#5B4A5B" d="M278.969 206.833c0 12.686-10.284 22.969-22.969 22.969s-22.969-10.284-22.969-22.969 45.938-12.686 45.938 0z" opacity="1" data-original="#5b4a5b"></path><path fill="#F7BA65" d="M304.706 312.351h-97.411c-5.523 0-10 4.477-10 10v10.705s14.118 30.412 58.706 30.412c44.587 0 58.706-30.412 58.706-30.412v-10.705c-.001-5.523-4.479-10-10.001-10z" opacity="1" data-original="#f7ba65"></path><path d="m456.22 466.002-15.583-66.977c-5.427-23.328-23.021-42.19-45.916-49.227l-72.516-22.285v-5.163c0-7.298-4.493-13.559-10.856-16.182.855-13.309 3.289-30.199 9.63-43.926 6.09-8.298 11.145-17.764 14.912-28.088 2.208.475 4.428.718 6.64.718 17.349-.001 34.14-14.124 39.69-34.837 1.8-6.719 2.27-13.558 1.459-20.072a179.05 179.05 0 0 0 2.176-27.836c0-14.468-1.727-28.723-5.129-42.47 19.666-9.146 33.34-29.08 33.34-52.159V20c0-11.028-8.972-20-20-20h-37.5c-15.942 0-30.386 6.525-40.812 17.041C297.378 5.885 276.846 0 255.979 0c-20.854 0-41.38 5.879-59.751 17.024C185.804 6.518 171.367 0 155.433 0h-37.5c-11.028 0-20 8.972-20 20v37.5c0 23.065 13.657 42.99 33.304 52.143-3.405 13.75-5.136 28.01-5.136 42.486 0 9.396.744 18.806 2.2 27.983-.786 6.47-.31 13.257 1.477 19.926 5.55 20.713 22.341 34.836 39.691 34.836 2.212 0 4.432-.242 6.639-.717 3.767 10.324 8.821 19.79 14.912 28.088 6.341 13.726 8.776 30.616 9.63 43.926-6.363 2.622-10.856 8.884-10.856 16.182v5.163L117.279 349.8c-22.895 7.036-40.489 25.897-45.916 49.226L55.78 466.002c-2.608 11.208 0 22.805 7.157 31.817C70.092 506.831 80.796 512 92.304 512h327.392c11.507 0 22.211-5.169 29.367-14.181 7.156-9.011 9.765-20.609 7.157-31.817zm-59.428-99.391-29.691 15.553c-1.345.704-2.335.146-2.928-.446-.593-.594-1.151-1.582-.447-2.928l10.299-19.659 16.29 5.006a51.962 51.962 0 0 1 6.477 2.474zM255.979 55c44.199 0 81.413 39.623 87.098 91.383-3.626.704-7.203 2.02-10.644 3.925-5.505-4.461-16.067-14.17-25.296-29.336-5.266-8.65-15.396-12.712-25.208-10.106-8.277 2.199-16.999 3.314-25.923 3.314-8.926 0-17.651-1.115-25.932-3.315-9.812-2.611-19.944 1.453-25.209 10.105-9.166 15.061-19.789 24.837-25.312 29.331-3.45-1.908-7.036-3.224-10.671-3.926C174.57 94.62 211.783 55 255.979 55zm-71.885 147.187a118.4 118.4 0 0 1-.594-11.856c0-8.991 1.014-17.866 3.017-26.418 5.574-4.203 19.377-15.78 31.161-35.146 1.78-2.923 5.214-4.286 8.544-3.406 9.538 2.534 19.558 3.819 29.784 3.819 10.224 0 20.241-1.284 29.773-3.816 3.333-.888 6.766.483 8.544 3.407 11.783 19.361 25.584 30.938 31.159 35.142 2.003 8.552 3.017 17.427 3.017 26.418a118.384 118.384 0 0 1-.594 11.856c-2.01 19.958-9.025 37.945-19.383 51.841-.128.156-.25.316-.366.483-13.194 17.449-31.698 28.32-52.157 28.32-20.458 0-38.962-10.871-52.156-28.319a7.385 7.385 0 0 0-.369-.486c-10.356-13.896-17.37-31.882-19.38-51.839zM256 297.831c15.589 0 30.237-5.041 42.927-13.856-1.33 7.334-2.099 14.488-2.522 20.876h-80.811c-.423-6.388-1.192-13.542-2.522-20.876 12.691 8.816 27.339 13.856 42.928 13.856zm-51.206 24.521c0-1.379 1.122-2.5 2.5-2.5h97.411c1.378 0 2.5 1.121 2.5 2.5v8.818c-3.154 5.362-16.952 24.798-51.206 24.798-34.311 0-48.097-19.5-51.206-24.791v-8.825zm162.939-126.198c-4.051 15.119-16.117 25.229-27.553 23.55a128.37 128.37 0 0 0 2.667-16.248l-.003.057c.082-1.003 1.19-9.885 14.683-12.895a7.501 7.501 0 0 0-3.265-14.641c-4.428.988-8.1 2.432-11.167 4.137a130.108 130.108 0 0 0-2.471-17.167c4.354-2.154 8.905-2.73 13.143-1.594 5.495 1.473 10.012 5.687 12.719 11.865 2.957 6.755 3.401 14.9 1.247 22.936zm3.124-44.025c0 .628-.011 1.257-.019 1.885a32.253 32.253 0 0 0-12.617-6.976c-1.056-11.321-3.461-22.155-7.018-32.29 1.776.164 3.565.253 5.365.253 3.343 0 6.615-.303 9.803-.853 2.969 12.295 4.486 25.038 4.486 37.981zM356.567 15h37.5c2.757 0 5 2.243 5 5v37.5c0 23.435-19.065 42.5-42.5 42.5-4.288 0-8.495-.637-12.538-1.884-7.592-14.633-17.779-27.206-29.781-36.88a43.116 43.116 0 0 1-.181-3.736c.001-23.435 19.066-42.5 42.5-42.5zm-100.588 0c17.601 0 34.971 4.842 50.652 14.049a57.053 57.053 0 0 0-7.222 22.235C286.175 44.044 271.446 40 255.979 40c-15.451 0-30.167 4.036-43.391 11.263a57.071 57.071 0 0 0-7.229-22.231C221.032 19.837 238.392 15 255.979 15zM112.932 57.5V20c0-2.757 2.243-5 5-5h37.5c23.434 0 42.5 19.065 42.5 42.5a43.04 43.04 0 0 1-.177 3.699c-12.025 9.682-22.231 22.272-29.833 36.929a42.439 42.439 0 0 1-12.49 1.871c-23.434.001-42.5-19.064-42.5-42.499zm42.501 57.5c1.785 0 3.559-.085 5.32-.247-3.557 10.137-5.962 20.974-7.017 32.297a32.265 32.265 0 0 0-12.616 6.999c-.007-.64-.019-1.28-.019-1.92 0-12.948 1.52-25.692 4.489-37.989 3.2.554 6.486.86 9.843.86zm-11.166 81.154c-2.154-8.036-1.71-16.182 1.25-22.936 2.707-6.179 7.224-10.393 12.72-11.865 4.236-1.136 8.788-.559 13.142 1.595a129.775 129.775 0 0 0-2.471 17.167c-3.068-1.705-6.739-3.15-11.167-4.137a7.501 7.501 0 0 0-3.265 14.641c13.493 3.01 14.601 11.892 14.683 12.895l-.003-.057a128.353 128.353 0 0 0 2.667 16.247c-11.447 1.67-23.506-8.432-27.556-23.55zm-22.581 167.983 16.29-5.006 10.298 19.659c.705 1.346.146 2.334-.447 2.928-.593.593-1.583 1.149-2.928.446l-29.691-15.553a51.916 51.916 0 0 1 6.478-2.474zM188.721 497c2.804-47.469 31.98-85 67.279-85 35.263 0 64.469 37.551 67.276 85zm248.595-8.508a22.383 22.383 0 0 1-17.62 8.508h-44.423l14.725-47.126a7.5 7.5 0 0 0-14.318-4.473L359.558 497h-21.273c-1.347-25.653-9.561-49.595-23.47-68.001C299.221 408.364 278.333 397 256 397c-22.37 0-43.282 11.396-58.883 32.09-13.872 18.399-22.056 42.301-23.4 67.91h-21.275l-16.122-51.599a7.497 7.497 0 0 0-9.396-4.922 7.5 7.5 0 0 0-4.922 9.395L136.727 497H92.304c-6.905 0-13.327-3.102-17.621-8.509s-5.859-12.365-4.294-19.091l15.583-66.978c2.371-10.191 7.729-19.285 15.125-26.27l36.841 19.299c2.645 1.386 5.451 2.062 8.22 2.062 4.48-.001 8.859-1.774 12.274-5.189 5.527-5.527 6.754-13.571 3.127-20.495l-9-17.18 41.368-12.712c6.914 9.888 25.071 29.031 62.071 29.031s55.158-19.144 62.071-29.032l41.368 12.713-9 17.181c-3.627 6.924-2.399 14.968 3.127 20.495 3.416 3.416 7.794 5.189 12.274 5.189 2.769 0 5.576-.678 8.22-2.062l36.842-19.299c7.396 6.985 12.754 16.08 15.125 26.271L441.61 469.4a22.381 22.381 0 0 1-4.294 19.092z" fill="#000000" opacity="1" data-original="#000000"></path><path d="M182.932 57.5c0-15.163-12.336-27.5-27.5-27.5h-20a7.5 7.5 0 0 0-7.5 7.5v20c0 15.163 12.336 27.5 27.5 27.5s27.5-12.337 27.5-27.5zm-40 0V45h12.5c6.892 0 12.5 5.607 12.5 12.5s-5.607 12.5-12.5 12.5c-6.892 0-12.5-5.607-12.5-12.5zM356.567 85c15.164 0 27.5-12.337 27.5-27.5v-20a7.5 7.5 0 0 0-7.5-7.5h-20c-15.163 0-27.5 12.337-27.5 27.5s12.337 27.5 27.5 27.5zm0-40h12.5v12.5c0 6.893-5.608 12.5-12.5 12.5s-12.5-5.607-12.5-12.5 5.608-12.5 12.5-12.5zM239.333 261.707c4.471 0 8.807-.896 12.888-2.66 2.427-1.051 5.093-1.09 7.313-.107a32.206 32.206 0 0 0 14.044 2.755 32.415 32.415 0 0 0 31.583-31.991c.211-14.029-8.631-26.563-21.72-31.158-4.612-5.524-14.277-8.727-27.443-8.727-13.291 0-23.015 3.264-27.574 8.885-12.818 4.626-21.413 16.455-21.59 30.074-.114 8.766 3.213 17.025 9.367 23.261 6.157 6.234 14.372 9.668 23.132 9.668zM256 204.818c8.238 0 13.696 1.769 15.44 2.968-.495 8.088-7.231 14.516-15.44 14.516s-14.946-6.428-15.44-14.516c1.744-1.199 7.202-2.968 15.44-2.968zm-28.815 11.897c4.115 11.963 15.473 20.587 28.815 20.587 13.372 0 24.751-8.662 28.842-20.666a17.54 17.54 0 0 1 5.323 12.843c-.139 9.241-7.765 16.967-16.998 17.222a17.372 17.372 0 0 1-7.563-1.478c-6.034-2.669-13.083-2.648-19.339.057a17.355 17.355 0 0 1-6.932 1.428c-4.717 0-9.141-1.85-12.455-5.207a17.375 17.375 0 0 1-5.043-12.527c.061-4.753 2.055-9.104 5.35-12.259zM281.925 176.654v10c0 4.143 3.358 7.5 7.5 7.5s7.5-3.357 7.5-7.5v-10a7.5 7.5 0 0 0-15 0zM217.575 158.457h10c4.142 0 7.5-3.357 7.5-7.5s-3.358-7.5-7.5-7.5h-10c-4.142 0-7.5 3.357-7.5 7.5s3.358 7.5 7.5 7.5zM284.425 158.457h10c4.142 0 7.5-3.357 7.5-7.5s-3.358-7.5-7.5-7.5h-10c-4.142 0-7.5 3.357-7.5 7.5s3.358 7.5 7.5 7.5zM215.075 176.654v10c0 4.143 3.358 7.5 7.5 7.5s7.5-3.357 7.5-7.5v-10a7.5 7.5 0 0 0-15 0z" fill="#000000" opacity="1" data-original="#000000"></path></g></svg>